<?xml version="1.0" encoding="UTF-8"?>
<svg width="512px" height="512px" viewBox="0 0 512 512" version="1.1" xmlns="http://www.w3.org/2000/svg" xmlns:xlink="http://www.w3.org/1999/xlink">
    <title>pdf-icon</title>
    <g id="pdf-icon" stroke="none" stroke-width="1" fill="none" fill-rule="evenodd">
        <path d="M93.8671875,-0.00468384075 L347,-0.00468384075 L347,-0.00468384075 L468,121 L467.668887,461.995298 C467.645517,489.592992 445.266609,511.952958 417.668905,511.952958 L93.8671875,511.995316 C66.25295,511.995316 43.8671875,489.609554 43.8671875,461.995316 L43.8671875,49.9953162 C43.8671875,22.3810787 66.25295,-0.00468384075 93.8671875,-0.00468384075 Z" id="Rectángulo" fill="#424242"></path>
        <polygon id="Rectángulo" fill="#FFFFFF" points="347 18 450 121 347 121"></polygon>
        <g id="PDF" transform="translate(62, 239)" fill="#FFFFFF" fill-rule="nonzero">
            <path d="M0,152 L31.7894737,152 L31.7894737,104.072072 L62.6315789,104.072072 C94.6315789,104.072072 116,83.4261954 116,52.1413721 L116,51.9306999 C116,20.6458766 94.6315789,0 62.6315789,0 L0,0 L0,152 Z M54.8421053,25.1753292 C73.0526316,25.1753292 83.7894737,34.7609148 83.7894737,52.036036 L83.7894737,52.2467082 C83.7894737,69.5218295 73.0526316,79.2127512 54.8421053,79.2127512 L31.7894737,79.2127512 L31.7894737,25.1753292 L54.8421053,25.1753292 Z" id="Forma"></path>
            <path d="M135,152 L195.677912,152 C241.827309,152 268,124.191268 268,75.1046431 L268,74.8939709 C268,27.2820513 241.506827,0 195.677912,0 L135,0 L135,152 Z M167.261847,125.77131 L167.261847,26.2286902 L190.550201,26.2286902 C218.538956,26.2286902 235.097189,44.1358281 235.097189,75.4206514 L235.097189,75.6313236 C235.097189,108.074844 219.073092,125.77131 190.550201,125.77131 L167.261847,125.77131 Z" id="Forma"></path>
            <polygon id="Trazado" points="289 152 320.957672 152 320.957672 92.1690922 383.074074 92.1690922 383.074074 66.993763 320.957672 66.993763 320.957672 26.2286902 389 26.2286902 389 0 289 0"></polygon>
        </g>
    </g>
</svg>