<?xml version="1.0" encoding="UTF-8"?>
<svg width="850px" height="850px" viewBox="0 0 850 850" version="1.1" xmlns="http://www.w3.org/2000/svg" xmlns:xlink="http://www.w3.org/1999/xlink">
    <title>LogoAyG_svg</title>
    <g id="LogoAyG" stroke="none" stroke-width="1" fill="none" fill-rule="evenodd">
        <g id="LogoAyG_svgsvg2" fill="#1C2046" fill-rule="nonzero">
            <path d="M425,0 C659.721019,0 850,190.278981 850,425 C850,659.721019 659.721019,850 425,850 C190.278981,850 0,659.721019 0,425 C0,190.278981 190.278981,0 425,0 Z M425,50 C217.893219,50 50,217.893219 50,425 C50,632.106781 217.893219,800 425,800 C632.106781,800 800,632.106781 800,425 C800,217.893219 632.106781,50 425,50 Z" id="Trazado-2"></path>
            <path d="M111.269252,533.550866 L111.614074,534.525391 C287.622389,535.845632 459.281686,588.622703 605.490826,686.154854 L607.852,687.74014 L606.543088,687.470002 C482.066301,661.979958 354.229772,663.100726 231.268876,690.0551 L227.509312,690.890522 C174.369766,651.755177 133.386053,597.071599 111.269252,533.550866 Z" id="Forma-combinada-path"></path>
            <path d="M251.854626,707.188142 C365.127837,684.568087 481.801213,684.369458 595.134138,706.592252 L592.480985,708.212386 C542.943581,737.920559 484.966349,755 423,755 C360.33506,755 301.749688,737.53329 251.846827,707.202812 L251.854626,707.188142 Z" id="Forma-combinada-path"></path>
            <path d="M104.374679,338.82914 C324.091068,362.889594 521.803512,485.870407 640.306502,673.344364 L637.760464,675.563107 C636.056133,677.025269 634.336712,678.470342 632.602468,679.89806 L633.035256,679.530577 C478.351097,571.614871 294.027059,513.5 104.843788,513.5 L105.002321,513.502791 C97.180424,485.337552 93,455.656971 93,425 C93,395.839365 96.7822984,367.562134 103.883072,340.632128 L104.374679,338.82914 Z" id="Forma-combinada-path"></path>
            <path d="M530.977949,510.133889 C598.896279,482.335347 673.802334,477.443955 745.146378,496.842137 L745.1567,496.845512 C731.255482,559.455849 699.568268,615.371839 655.669524,659.019013 L655.918173,658.764604 C621.167394,604.436102 579.578032,554.91569 532.18676,511.327626 L530.912864,510.16 L530.977949,510.133889 Z" id="Forma-combinada-path"></path>
            <path d="M424,172 C324.114745,172 241.417619,245.591131 227.16967,341.512345 L227.176615,341.501812 C307.873665,364.021638 383.747161,399.834281 451.844184,446.940517 C501.983494,404.00227 559.508572,370.311308 621.631168,347.589596 C610.054676,248.720432 525.986847,172 424,172 Z" id="Trazado"></path>
            <path d="M741.659254,338.951331 L742.116928,340.632128 C749.217702,367.562134 753,395.839365 753,425 C753,442.396559 751.653865,459.478711 749.060077,476.147975 L749.049283,476.144228 C671.086,455.333046 589.252224,461.781034 515.793414,493.750845 L513.537864,494.742 L511.438195,492.941321 C498.152922,481.598906 484.472587,470.722607 470.425256,460.333802 L468.455484,458.884 L470.841904,456.894354 C548.277284,392.750423 642.14458,351.900377 741.659254,338.951331 Z" id="Forma-combinada-path"></path>
        </g>
    </g>
</svg>